function data()
return {
  subMeshes = {
    {
      indices = {
        normal = {
          count = 16896,
          offset = 202752,
        },
        tangent = {
          count = 16896,
          offset = 202752,
        },
        position = {
          count = 16896,
          offset = 202752,
        },
        uv0 = {
          count = 16896,
          offset = 202752,
        },
      },
    },
  },
  vertexAttr = {
    normal = {
      count = 50688,
      numComp = 3,
      offset = 84480,
    },
    tangent = {
      count = 67584,
      numComp = 4,
      offset = 135168,
    },
    position = {
      count = 50688,
      numComp = 3,
      offset = 0,
    },
    uv0 = {
      count = 33792,
      numComp = 2,
      offset = 50688,
    },
  },
}
end
